<svg xmlns="http://www.w3.org/2000/svg" viewBox="0 0 500 500" width="100%" height="100%" fill="none" stroke="currentColor" stroke-width="1.5" stroke-linecap="round" stroke-linejoin="round" style="opacity: 0.85;">
  <path d="M250 480 Q255 300 245 80" />
  <!-- Leaves -->
  <path d="M252 400 C280 430 330 390 310 360 C290 330 260 360 250 390" />
  <path d="M252 395 C220 420 170 380 190 350 C210 320 240 350 250 385" />
  <path d="M254 320 C280 350 320 310 300 280 C280 250 260 280 251 310" />
  <path d="M253 315 C220 340 180 300 200 270 C220 240 240 270 250 305" />
  <path d="M255 240 C280 270 320 230 300 200 C280 170 260 200 251 230" />
  <path d="M254 235 C220 260 180 220 200 190 C220 160 240 190 250 225" />
  <path d="M253 160 C270 190 310 150 290 120 C270 90 255 120 248 150" />
  <path d="M252 155 C220 180 180 140 200 110 C220 80 240 110 247 145" />
  <path d="M245 80 C230 50 260 30 270 50 C280 70 260 80 245 80" />
  <!-- Delicate Veins -->
  <path d="M251 395 Q 280 375 305 365 M251 390 Q 220 370 195 355 M252 315 Q 280 295 300 285 M252 310 Q 220 290 200 280 M253 235 Q 280 215 300 205 M253 230 Q 220 210 200 200 M251 155 Q 275 135 290 125 M251 150 Q 225 130 205 120 M245 80 Q 255 60 265 55" stroke-opacity="0.4" />
</svg>